<svg
    width="84"
    height="32"
    viewBox="0 0 84 32"
    fill="none"
    xmlns="http://www.w3.org/2000/svg">
    <g clipPath="url(#clip0_48_22)">
        <path
            d="M24.0932 7.31445H18.4349L12.5153 20.0541L6.5958 7.31445H0.9375L9.77761 25.8439H15.2531L24.0932 7.31445Z"
            fill="#fff"/>
        <path
            d="M24.2499 25.8439H29.9082L35.8277 13.1043L41.7472 25.8439H47.4055L38.5654 7.31445H33.0952L24.2499 25.8439Z"
            fill="#fff"/>
        <path
            d="M83.6072 7.31445H77.9489L72.0241 20.0541L66.1098 7.31445H60.4515L69.2917 25.8439H74.7619L83.6072 7.31445Z"
            fill="#fff"/>
        <path
            d="M24.0932 7.31445H18.4349L12.5153 20.0541L6.5958 7.31445H0.9375L9.77761 25.8439H15.2531L24.0932 7.31445Z"
            fill="#fff"/>
        <path d="M56.6794 7.31445H51.1778V25.8439H56.6794V7.31445Z" fill="#fff"/>
    </g>
    <defs>
        <clipPath id="clip0_48_22">
            <rect
                width="82.6697"
                height="18.5294"
                fill="white"
                transform="translate(0.9375 7.31445)"/>
        </clipPath>
    </defs>
</svg>